<svg width="1114.15625px" height="200.00003662109376px" xmlns="http://www.w3.org/2000/svg" viewBox="-307.078125 -25.000018310546878 1114.15625 200.00003662109376" style="background: rgba(0, 0, 0, 0);" preserveAspectRatio="xMidYMid"><defs><filter id="editing-jagged" x="-100%" y="-100%" width="300%" height="300%"><feTurbulence result="turb" baseFrequency="0.01" numOctaves="1" seed="1"></feTurbulence><feDisplacementMap in="SourceGraphic" in2="turb" scale="3"></feDisplacementMap></filter></defs><g filter="url(#editing-jagged)"><g transform="translate(-148.8844347000122, 114.95499515533447)"><path d="M51.98 2.28L51.98 2.28L51.98 2.28Q37.39 2.28 36.02-18.47L36.02-18.47L16.42-18.47L16.42-18.47Q14.14-13.22 12.54-8.66L12.54-8.66L9.58 0L-6.38 0L29.53-75.24L54.04-75.24L58.82-19.84L58.82-19.84Q59.96-7.87 64.52-4.33L64.52-4.33L64.52-4.33Q61.22 2.28 51.98 2.28ZM26.22-41.27L19.95-26.79L35.68-26.79L34.31-56.09L34.31-59.17L26.22-41.27ZM118.79-17.56L118.79-17.56L118.79-17.56Q120.95-14.82 120.95-9.52L120.95-9.52L120.95-9.52Q120.95-4.22 116.91-0.97L116.91-0.97L116.91-0.97Q112.86 2.28 105.79 2.28L105.79 2.28L105.79 2.28Q101.69 2.28 95.30 1.37L95.30 1.37L95.30 1.37Q82.76-0.57 79.17-0.57L79.17-0.57L79.17-0.57Q75.58-0.57 74.10-0.40L74.10-0.40L74.10-0.40Q72.62-0.23 70.22 0L70.22 0L84.02-75.24L108.98-75.24L97.58-12.54L97.58-12.54Q99.07-12.31 100.43-12.31L100.43-12.31L103.28-12.31L103.28-12.31Q112.86-12.31 118.79-17.56ZM176.24-17.56L176.24-17.56L176.24-17.56Q178.41-14.82 178.41-9.52L178.41-9.52L178.41-9.52Q178.41-4.22 174.36-0.97L174.36-0.97L174.36-0.97Q170.32 2.28 163.25 2.28L163.25 2.28L163.25 2.28Q159.14 2.28 152.76 1.37L152.76 1.37L152.76 1.37Q140.22-0.57 136.63-0.57L136.63-0.57L136.63-0.57Q133.04-0.57 131.56-0.40L131.56-0.40L131.56-0.40Q130.07-0.23 127.68 0L127.68 0L141.47-75.24L166.44-75.24L155.04-12.54L155.04-12.54Q156.52-12.31 157.89-12.31L157.89-12.31L160.74-12.31L160.74-12.31Q170.32-12.31 176.24-17.56ZM219.22 0L206.11 0L226.75-75.24L250.57-75.24L255.82-32.26L277.02-75.24L296.97-75.24L299.02-18.92L299.02-18.92Q299.48-7.75 304.95-4.33L304.95-4.33L304.95-4.33Q303.70-2.05 300.05 0.11L300.05 0.11L300.05 0.11Q296.40 2.28 291.56 2.28L291.56 2.28L291.56 2.28Q286.71 2.28 283.86 0.91L283.86 0.91L283.86 0.91Q281.01-0.46 279.41-2.74L279.41-2.74L279.41-2.74Q276.56-6.84 276.56-14.71L276.56-14.71L276.56-49.93L254.11 0L239.97 0L231.99-51.19L219.22 0ZM358.53-17.56L358.53-17.56L358.53-17.56Q360.70-14.82 360.70-10.37L360.70-10.37L360.70-10.37Q360.70-4.22 356.14-0.97L356.14-0.97L356.14-0.97Q351.58 2.28 344.39 2.28L344.39 2.28L344.39 2.28Q340.29 2.28 334.02 1.37L334.02 1.37L334.02 1.37Q321.71-0.57 317.95-0.57L317.95-0.57L317.95-0.57Q314.18-0.57 312.70-0.40L312.70-0.40L312.70-0.40Q311.22-0.23 308.83 0L308.83 0L322.85-75.24L371.98-75.24L371.98-75.24Q371.98-68.29 368.62-64.64L368.62-64.64L368.62-64.64Q365.26-60.99 358.64-60.99L358.64-60.99L358.64-60.99Q352.03-60.99 345.31-64.07L345.31-64.07L341.77-44.12L362.06-44.12L362.06-44.12Q362.06-38.08 359.10-34.71L359.10-34.71L359.10-34.71Q356.14-31.35 351.18-31.35L351.18-31.35L351.18-31.35Q346.22-31.35 343.14-32.49L343.14-32.49L343.14-32.49Q340.06-33.63 339.72-33.97L339.72-33.97L335.62-12.43L335.62-12.43Q338.35-12.08 343.48-12.08L343.48-12.08L343.48-12.08Q352.26-12.08 358.53-17.56ZM380.87 0L367.76 0L388.40-75.24L412.22-75.24L417.47-32.26L438.67-75.24L458.62-75.24L460.67-18.92L460.67-18.92Q461.13-7.75 466.60-4.33L466.60-4.33L466.60-4.33Q465.35-2.05 461.70 0.11L461.70 0.11L461.70 0.11Q458.05 2.28 453.21 2.28L453.21 2.28L453.21 2.28Q448.36 2.28 445.51 0.91L445.51 0.91L445.51 0.91Q442.66-0.46 441.07-2.74L441.07-2.74L441.07-2.74Q438.22-6.84 438.22-14.71L438.22-14.71L438.22-49.93L415.76 0L401.62 0L393.64-51.19L380.87 0ZM473.21-27.82L473.21-27.82L473.21-27.82Q473.21-49.36 484.39-62.93L484.39-62.93L484.39-62.93Q496.24-77.63 516.88-77.63L516.88-77.63L516.88-77.63Q531.81-77.63 539.33-70.39L539.33-70.39L539.33-70.39Q546.86-63.16 546.86-47.88L546.86-47.88L546.86-47.88Q546.86-24.62 535.00-11.06L535.00-11.06L535.00-11.06Q523.26 2.28 503.54 2.28L503.54 2.28L503.54 2.28Q488.15 2.28 480.68-5.42L480.68-5.42L480.68-5.42Q473.21-13.11 473.21-27.82ZM503.20-51.41L503.20-51.41L503.20-51.41Q498.07-30.89 498.07-14.71L498.07-14.71L498.07-14.71Q498.07-10.83 499.38-8.32L499.38-8.32L499.38-8.32Q500.69-5.81 504.17-5.81L504.17-5.81L504.17-5.81Q507.64-5.81 509.81-7.47L509.81-7.47L509.81-7.47Q511.97-9.12 513.68-12.88L513.68-12.88L513.68-12.88Q516.42-19.04 518.99-32.09L518.99-32.09L518.99-32.09Q521.55-45.14 521.78-50.56L521.78-50.56L521.78-50.56Q522.01-55.97 522.01-60.08L522.01-60.08L522.01-60.08Q522.01-64.18 520.75-66.80L520.75-66.80L520.75-66.80Q519.50-69.43 516.13-69.43L516.13-69.43L516.13-69.43Q512.77-69.43 510.49-67.37L510.49-67.37L510.49-67.37Q506.27-63.50 503.20-51.41ZM575.81 0L551.42 0L565.33-74.90L565.33-74.90Q576.61-76.15 593.09-76.15L593.09-76.15L593.09-76.15Q609.56-76.15 617.20-71.36L617.20-71.36L617.20-71.36Q624.83-66.58 624.83-56.94L624.83-56.94L624.83-56.94Q624.83-47.31 619.88-41.27L619.88-41.27L619.88-41.27Q614.92-35.23 606.37-33.29L606.37-33.29L606.37-33.29Q608.30-23.83 612.75-16.19L612.75-16.19L612.75-16.19Q616.85-9.01 621.64-6.73L621.64-6.73L621.64-6.73Q619.93-1.94 616.46 0.17L616.46 0.17L616.46 0.17Q612.98 2.28 608.02 2.28L608.02 2.28L608.02 2.28Q603.06 2.28 599.18-0.63L599.18-0.63L599.18-0.63Q595.31-3.53 592.23-8.89L592.23-8.89L592.23-8.89Q585.73-20.52 585.05-38.87L585.05-38.87L585.85-38.87L585.85-38.87Q594.28-39.10 598.50-43.49L598.50-43.49L598.50-43.49Q602.72-47.88 602.72-57.11L602.72-57.11L602.72-57.11Q602.72-68.63 593.03-69.08L593.03-69.08L590.52-69.08L590.52-69.08Q589.49-69.08 588.92-68.97L588.92-68.97L575.81 0ZM653.68 0L628.82 0L643.30-75.24L668.38-75.24L653.68 0ZM719.57-17.56L719.57-17.56L719.57-17.56Q721.73-14.82 721.73-10.37L721.73-10.37L721.73-10.37Q721.73-4.22 717.17-0.97L717.17-0.97L717.17-0.97Q712.61 2.28 705.43 2.28L705.43 2.28L705.43 2.28Q701.33 2.28 695.06 1.37L695.06 1.37L695.06 1.37Q682.75-0.57 678.98-0.57L678.98-0.57L678.98-0.57Q675.22-0.57 673.74-0.40L673.74-0.40L673.74-0.40Q672.26-0.23 669.86 0L669.86 0L683.89-75.24L733.02-75.24L733.02-75.24Q733.02-68.29 729.66-64.64L729.66-64.64L729.66-64.64Q726.29-60.99 719.68-60.99L719.68-60.99L719.68-60.99Q713.07-60.99 706.34-64.07L706.34-64.07L702.81-44.12L723.10-44.12L723.10-44.12Q723.10-38.08 720.14-34.71L720.14-34.71L720.14-34.71Q717.17-31.35 712.22-31.35L712.22-31.35L712.22-31.35Q707.26-31.35 704.18-32.49L704.18-32.49L704.18-32.49Q701.10-33.63 700.76-33.97L700.76-33.97L696.65-12.43L696.65-12.43Q699.39-12.08 704.52-12.08L704.52-12.08L704.52-12.08Q713.30-12.08 719.57-17.56ZM776.68-52.67L776.68-52.67L776.68-52.67Q778.39-56.09 778.39-59.28L778.39-59.28L778.39-59.28Q778.39-62.47 778.05-64.24L778.05-64.24L778.05-64.24Q777.71-66.01 776.91-67.37L776.91-67.37L776.91-67.37Q775.20-70.34 771.78-70.34L771.78-70.34L771.78-70.34Q767.56-70.34 764.14-67.26L764.14-67.26L764.14-67.26Q760.49-64.07 760.49-59.05L760.49-59.05L760.49-59.05Q760.49-55.86 762.72-53.41L762.72-53.41L762.72-53.41Q764.94-50.96 768.36-48.68L768.36-48.68L768.36-48.68Q771.78-46.40 775.66-44.12L775.66-44.12L775.66-44.12Q779.53-41.84 782.95-39.10L782.95-39.10L782.95-39.10Q790.82-32.83 790.82-24.40L790.82-24.40L790.82-24.40Q790.82-18.70 787.80-13.85L787.80-13.85L787.80-13.85Q784.78-9.01 779.76-5.47L779.76-5.47L779.76-5.47Q768.82 2.28 754.34 2.28L754.34 2.28L754.34 2.28Q742.60 2.28 736.55-1.54L736.55-1.54L736.55-1.54Q730.51-5.36 730.51-11.17L730.51-11.17L730.51-11.17Q730.51-21.55 738.61-24.17L738.61-24.17L738.61-24.17Q740.89-24.97 744.36-24.97L744.36-24.97L744.36-24.97Q747.84-24.97 751.83-23.48L751.83-23.48L751.83-23.48Q750.01-18.81 750.01-14.59L750.01-14.59L750.01-14.59Q750.01-5.47 756.50-5.47L756.50-5.47L756.50-5.47Q760.72-5.47 764.20-8.55L764.20-8.55L764.20-8.55Q767.68-11.63 767.68-15.11L767.68-15.11L767.68-15.11Q767.68-18.58 765.45-21.09L765.45-21.09L765.45-21.09Q763.23-23.60 759.92-25.59L759.92-25.59L759.92-25.59Q756.62-27.59 752.80-29.53L752.80-29.53L752.80-29.53Q748.98-31.46 745.67-34.20L745.67-34.20L745.67-34.20Q737.92-40.47 737.92-50.50L737.92-50.50L737.92-50.50Q737.92-57 741.11-62.07L741.11-62.07L741.11-62.07Q744.31-67.15 749.44-70.57L749.44-70.57L749.44-70.57Q759.70-77.52 772.29-77.52L772.29-77.52L772.29-77.52Q784.89-77.52 790.99-73.76L790.99-73.76L790.99-73.76Q797.09-70.00 797.09-63.61L797.09-63.61L797.09-63.61Q797.09-58.03 792.76-54.49L792.76-54.49L792.76-54.49Q788.99-51.53 784.43-51.53L784.43-51.53L784.43-51.53Q779.87-51.53 776.68-52.67Z" fill="#444"></path></g></g><style>text {
  font-size: 64px;
  font-family: Arial Black;
  dominant-baseline: central;
  text-anchor: middle;
}</style></svg>